<?xml version="1.0" encoding="utf-8"?>
<!-- Generator: Adobe Illustrator 26.0.1, SVG Export Plug-In . SVG Version: 6.00 Build 0)  -->
<svg version="1.1" id="Layer_1" xmlns="http://www.w3.org/2000/svg" xmlns:xlink="http://www.w3.org/1999/xlink" x="0px" y="0px"
	 viewBox="0 0 841.9 595.3" style="enable-background:new 0 0 841.9 595.3;" xml:space="preserve">
<style type="text/css">
	.st0{fill:#8BC73A;}
	.st1{fill:#FFFFFF;}
</style>
<g>
	<g>
		<path class="st0" d="M594.6,347.7v-70.3c0-22-17.8-39.8-39.8-39.8H285c-22,0-39.8,17.8-39.8,39.8v70.3
			c0,55.8,45.3,101.1,101.1,101.1H366c11.5,0,22.8,3.5,32.3,10c31,21.2,90.3,49.8,165.1,27.7c1.4-0.4,1.2-2.6-0.3-2.7
			c-15.1-1.6-51.4-7-74.4-23.9c-4.8-3.5-2.4-11.2,3.5-11.2c0.4,0,0.8,0,1.2,0C549.3,448.8,594.6,403.6,594.6,347.7z"/>
	</g>
	<g>
		<g>
			<path class="st0" d="M194,220.5v40.2c0,29.8,25.4,53.9,56.7,53.9l0,0c31.3,0,56.7-24.1,56.7-53.9v-40.2H194z"/>
			<path class="st1" d="M250.6,320.9c-34.8,0-63.1-27-63.1-60.3v-46.5h126.1v46.5C313.7,293.9,285.4,320.9,250.6,320.9z
				 M200.3,226.9v33.8c0,26.2,22.6,47.5,50.3,47.5s50.3-21.3,50.3-47.5v-33.8H200.3z"/>
		</g>
		<g>
			<path class="st0" d="M307.3,220.5v40.2c0,29.8,25.4,53.9,56.7,53.9l0,0c31.3,0,56.7-24.1,56.7-53.9v-40.2H307.3z"/>
			<path class="st1" d="M364,320.9c-34.8,0-63.1-27-63.1-60.3v-46.5h126.1v46.5C427.1,293.9,398.8,320.9,364,320.9z M313.7,226.9
				v33.8c0,26.2,22.6,47.5,50.3,47.5c27.7,0,50.3-21.3,50.3-47.5v-33.8H313.7z"/>
		</g>
		<g>
			<path class="st0" d="M420.7,220.5v40.2c0,29.8,25.4,53.9,56.7,53.9h0c31.3,0,56.7-24.1,56.7-53.9v-40.2H420.7z"/>
			<path class="st1" d="M477.4,320.9c-34.8,0-63.1-27-63.1-60.3v-46.5h126.1v46.5C540.4,293.9,512.1,320.9,477.4,320.9z
				 M427.1,226.9v33.8c0,26.2,22.6,47.5,50.3,47.5c27.7,0,50.3-21.3,50.3-47.5v-33.8H427.1z"/>
		</g>
		<g>
			<path class="st0" d="M534.1,220.5v40.2c0,29.8,25.4,53.9,56.7,53.9l0,0c31.3,0,56.7-24.1,56.7-53.9v-40.2H534.1z"/>
			<path class="st1" d="M590.7,320.9c-34.8,0-63.1-27-63.1-60.3v-46.5h126.1v46.5C653.8,293.9,625.5,320.9,590.7,320.9z
				 M540.4,226.9v33.8c0,26.2,22.6,47.5,50.3,47.5s50.3-21.3,50.3-47.5v-33.8H540.4z"/>
		</g>
		<g>
			<path class="st0" d="M279.4,124.2L194,220.5h113.4l47.8-115.8h-32.4C306.2,104.7,290.4,111.8,279.4,124.2z"/>
			<path class="st1" d="M311.6,226.9l-135.9-0.3L274.6,120c12.2-13.8,29.8-21.7,48.2-21.7h41.9L311.6,226.9z M208.1,214.1h94.9
				l42.6-103h-22.8c-14.8,0-28.9,6.3-38.6,17.4L208.1,214.1z"/>
		</g>
		<g>
			<polygon class="st0" points="416.3,104.7 420.7,220.5 534.1,220.5 479.1,104.7 			"/>
			<path class="st1" d="M544.1,226.9H414.6l-4.9-128.5h73.5L544.1,226.9z M426.8,214.1H524l-48.9-103h-52.2L426.8,214.1z"/>
		</g>
		<g>
			<polygon class="st0" points="355.2,104.7 307.3,220.5 420.7,220.5 416.3,104.7 			"/>
			<path class="st1" d="M427.3,226.9H297.8l53.1-128.5h71.5L427.3,226.9z M316.9,214.1h97.2l-3.9-103h-50.7L316.9,214.1z"/>
		</g>
		<g>
			<path class="st0" d="M507.6,104.7h-28.5l55,115.8h113.4l-98.8-98.8C537.8,110.8,523,104.7,507.6,104.7z"/>
			<path class="st1" d="M666.3,225.5L530,226.9L469,98.3h38.6c17.2,0,33.4,6.7,45.6,18.9L666.3,225.5z M538.1,214.1H632l-87.9-87.9
				c-9.8-9.8-22.7-15.1-36.5-15.1h-18.4L538.1,214.1z"/>
		</g>
	</g>
	<g>
		<g>
			<path class="st1" d="M355.7,360.8c0,13.7-11.1,24.8-24.8,24.8S306,374.6,306,360.8s11.1-24.8,24.8-24.8S355.7,347.1,355.7,360.8z
				"/>
		</g>
		<g>
			<path class="st1" d="M444.8,360.8c0,13.7-11.1,24.8-24.8,24.8s-24.8-11.1-24.8-24.8s11.1-24.8,24.8-24.8S444.8,347.1,444.8,360.8
				z"/>
		</g>
		<g>
			<path class="st1" d="M533.8,360.8c0,13.7-11.1,24.8-24.8,24.8s-24.8-11.1-24.8-24.8S495.2,336,509,336S533.8,347.1,533.8,360.8z"
				/>
		</g>
	</g>
</g>
</svg>
